<?xml version="1.0" standalone="no"?>
<!DOCTYPE svg PUBLIC "-//W3C//DTD SVG 20010904//EN"
 "http://www.w3.org/TR/2001/REC-SVG-20010904/DTD/svg10.dtd">
<svg version="1.0" xmlns="http://www.w3.org/2000/svg"
 width="512.000000pt" height="512.000000pt" viewBox="0 0 512.000000 512.000000"
 preserveAspectRatio="xMidYMid meet">

<g transform="translate(0.000000,512.000000) scale(0.100000,-0.100000)"
fill="#000000" stroke="none">
<path d="M373 5105 c-182 -49 -315 -186 -358 -367 -22 -95 -22 -2092 0 -2187
39 -165 152 -289 323 -354 57 -22 62 -22 944 -25 l887 -3 3 -887 3 -887 23
-59 c59 -156 159 -256 311 -308 l66 -23 1070 0 1070 0 66 23 c167 57 281 182
323 353 14 58 16 181 16 1094 0 1133 2 1095 -62 1216 -38 72 -125 159 -197
197 -119 63 -100 62 -1049 62 l-862 0 0 868 c0 736 -2 876 -15 925 -47 180
-182 315 -362 362 -83 22 -2120 21 -2200 0z m2188 -227 c57 -25 114 -83 140
-141 l24 -52 3 -866 3 -866 -79 -7 c-100 -8 -167 -28 -240 -71 -142 -84 -226
-226 -239 -404 l-6 -84 -869 6 c-858 6 -869 7 -918 28 -55 24 -113 81 -138
138 -16 33 -17 131 -17 1081 0 1160 -4 1089 68 1167 45 49 77 69 134 82 22 5
484 9 1068 8 934 -2 1033 -4 1066 -19z m2181 -2176 c25 -13 64 -43 87 -67 74
-81 71 -25 71 -1160 0 -1135 3 -1079 -71 -1160 -23 -24 -62 -54 -87 -67 l-47
-23 -1045 0 -1045 0 -53 24 c-59 27 -106 75 -134 137 -18 41 -18 85 -16 1102
l3 1059 30 48 c36 59 95 103 162 121 38 10 254 13 1073 11 l1025 -2 47 -23z"/>
<path d="M1402 4541 c-16 -17 -32 -44 -36 -62 -3 -17 -6 -119 -6 -225 l0 -194
-292 0 c-170 0 -309 -4 -330 -10 -78 -22 -105 -121 -49 -178 36 -35 66 -42
181 -42 l87 0 12 -82 c31 -205 130 -423 267 -584 30 -35 54 -66 54 -68 0 -3
-20 -17 -44 -31 -103 -60 -266 -108 -411 -121 -104 -8 -141 -24 -161 -67 -23
-48 -12 -98 27 -131 27 -23 40 -26 102 -26 200 0 470 83 635 195 19 13 40 21
46 18 6 -3 22 -14 36 -24 53 -36 208 -108 288 -133 104 -33 245 -56 338 -56
80 0 112 16 134 70 17 41 -1 104 -35 126 -15 10 -71 22 -137 29 -178 21 -272
49 -399 117 l-60 31 34 36 c150 158 273 421 302 647 l7 52 114 4 c109 4 115 6
144 33 38 36 47 82 26 127 -30 63 -29 63 -373 66 l-313 3 0 193 c0 107 -3 208
-6 225 -4 18 -20 45 -36 62 -24 23 -38 29 -73 29 -35 0 -49 -6 -73 -29z m358
-739 c0 -44 -35 -172 -71 -258 -36 -87 -130 -232 -182 -282 l-34 -33 -42 46
c-60 65 -134 182 -170 270 -35 82 -71 214 -71 258 l0 27 285 0 285 0 0 -28z"/>
<path d="M3593 2294 c-17 -9 -38 -30 -47 -48 -35 -75 -546 -1480 -546 -1503 0
-109 154 -146 205 -49 9 17 44 105 78 196 l62 165 309 0 309 0 71 -189 c79
-212 94 -232 168 -230 59 2 102 47 101 106 -1 31 -77 244 -271 760 -149 394
-278 730 -286 747 -29 56 -93 74 -153 45z m168 -733 c55 -151 98 -276 96 -278
-2 -2 -101 -2 -219 -1 l-214 3 107 295 c60 162 109 297 109 300 2 8 16 -29
121 -319z"/>
<path d="M3398 5104 c-34 -18 -58 -62 -58 -105 0 -22 10 -40 33 -63 32 -32 34
-33 172 -44 227 -19 391 -66 583 -168 435 -229 711 -648 765 -1161 l5 -42
-202 -3 c-222 -3 -233 -6 -262 -66 -31 -67 5 -135 83 -153 43 -10 438 -12 496
-2 23 3 50 18 69 36 l31 31 -6 156 c-24 686 -475 1287 -1132 1509 -139 46
-229 66 -374 80 -135 14 -170 13 -203 -5z"/>
<path d="M44 1786 l-34 -34 0 -98 c1 -174 38 -377 102 -554 230 -634 848
-1083 1506 -1093 l103 -2 30 33 c43 47 41 102 -5 148 -19 19 -44 34 -58 34
-74 0 -265 23 -341 41 -569 134 -1002 594 -1101 1169 -9 51 -16 111 -16 132
l0 38 185 0 c213 0 245 7 271 63 23 48 12 98 -27 131 l-31 26 -275 0 -275 0
-34 -34z"/>
</g>
</svg>
